<?xml version="1.0" standalone="no"?>
<!DOCTYPE svg PUBLIC "-//W3C//DTD SVG 20010904//EN"
 "http://www.w3.org/TR/2001/REC-SVG-20010904/DTD/svg10.dtd">
<svg version="1.0" xmlns="http://www.w3.org/2000/svg"
 width="1500.000000pt" height="1500.000000pt" viewBox="0 0 1500.000000 1500.000000"
 preserveAspectRatio="xMidYMid meet">

<g transform="translate(0.000000,1500.000000) scale(0.100000,-0.100000)"
fill="#000000" stroke="none">
<path d="M0 7500 l0 -7500 7500 0 7500 0 0 7500 0 7500 -7500 0 -7500 0 0
-7500z m9860 1280 l0 -450 -445 0 -445 0 0 450 0 450 445 0 445 0 0 -450z
m-2405 95 c113 -30 195 -102 240 -212 19 -45 20 -78 23 -588 4 -575 2 -606
-44 -697 -66 -130 -217 -201 -395 -184 -144 13 -244 77 -298 189 -49 101 -53
146 -49 702 4 469 5 514 23 560 46 124 124 197 245 231 63 17 185 17 255 -1z
m-943 -16 c193 -41 267 -167 256 -436 -7 -169 -41 -245 -143 -317 l-20 -15 20
-7 c43 -16 102 -74 128 -128 54 -111 63 -390 16 -526 -29 -85 -99 -157 -184
-191 -57 -22 -75 -23 -327 -27 l-268 -4 0 831 0 831 235 0 c135 0 256 -5 287
-11z m2108 -108 l0 -120 -117 0 c-65 0 -126 0 -135 -1 -17 0 -18 -41 -18 -710
l0 -710 -130 0 -130 0 0 710 0 710 -135 0 -135 0 0 120 0 120 400 0 400 0 0
-119z m2280 -1001 l0 -450 -450 0 -450 0 0 445 0 445 448 3 c246 1 448 3 450
5 1 1 2 -200 2 -448z m-1040 -5 l0 -445 -445 0 -445 0 0 445 0 445 445 0 445
0 0 -445z m0 -1035 l0 -450 -445 0 -445 0 0 450 0 450 445 0 445 0 0 -450z
m1040 0 l0 -450 -450 0 -450 0 0 450 0 450 450 0 450 0 0 -450z m1040 0 l0
-450 -452 2 -453 3 -3 448 -2 447 455 0 455 0 0 -450z m-5408 161 c104 -40
182 -140 208 -267 7 -34 10 -234 8 -580 l-3 -529 -24 -59 c-33 -83 -116 -166
-196 -196 -47 -18 -82 -23 -160 -24 -164 -2 -261 42 -332 148 -66 98 -67 99
-71 644 -4 530 1 597 44 692 43 94 128 164 231 190 65 16 231 5 295 -19z
m-1092 -696 l0 -705 215 0 215 0 0 -120 0 -120 -345 0 -345 0 0 825 0 825 130
0 130 0 0 -705z m1674 688 c3 -10 46 -299 96 -643 50 -344 94 -633 98 -643 4
-10 48 262 101 620 51 351 95 648 98 661 5 21 9 22 124 22 l119 0 -6 -27 c-3
-16 -60 -386 -128 -823 l-122 -795 -194 0 -195 0 -122 790 c-67 435 -124 805
-127 823 l-5 32 129 0 c114 0 129 -2 134 -17z m1466 -98 l0 -115 -225 0 -225
0 0 -230 0 -230 178 -2 177 -3 3 -117 3 -118 -181 0 -180 0 0 -240 0 -240 223
-2 222 -3 3 -117 3 -118 -356 0 -355 0 0 825 0 825 355 0 355 0 0 -115z m1280
-1090 l0 -445 -445 0 -445 0 0 445 0 445 445 0 445 0 0 -445z m1040 0 l0 -445
-450 0 -450 0 0 445 0 445 450 0 450 0 0 -445z m1040 0 l0 -445 -455 0 -455 0
0 445 0 445 455 0 455 0 0 -445z"/>
<path d="M7241 8625 c-50 -43 -53 -78 -49 -615 3 -441 5 -488 21 -517 46 -85
189 -84 230 3 15 31 17 89 17 545 0 562 0 563 -61 594 -46 25 -122 19 -158
-10z"/>
<path d="M6252 8413 l3 -216 79 2 c146 4 171 35 171 216 0 190 -20 215 -170
215 l-85 0 2 -217z"/>
<path d="M6250 7706 l0 -256 105 0 c100 0 106 1 135 28 41 37 54 112 47 260
-10 183 -37 213 -194 220 l-93 4 0 -256z"/>
<path d="M6322 6660 c-49 -11 -80 -45 -92 -104 -8 -35 -10 -204 -8 -531 3
-463 4 -481 24 -515 25 -43 56 -60 112 -60 57 0 98 25 117 72 23 59 23 1024
-1 1073 -26 56 -84 80 -152 65z"/>
</g>
</svg>
