<?xml version="1.0" encoding="UTF-8" standalone="no"?>
<!DOCTYPE svg PUBLIC "-//W3C//DTD SVG 1.1//EN" "http://www.w3.org/Graphics/SVG/1.1/DTD/svg11.dtd">
<svg version="1.1" xmlns="http://www.w3.org/2000/svg" xmlns:xlink="http://www.w3.org/1999/xlink" preserveAspectRatio="xMidYMid meet" viewBox="0 0 640 640" width="200" height="200"><defs><path d="M271.73 98.64C271.73 98.64 271.47 98.64 271.14 98.64C270.81 98.64 270.55 98.64 270.55 98.64C270.55 98.64 270.81 98.64 271.14 98.64C271.47 98.64 271.62 98.64 271.73 98.64Z" id="a1VuDjRhTT"></path><path d="M396.81 179.48C416.37 179.48 432.22 195.34 432.22 214.89C432.22 234.44 432.22 257.67 432.22 277.22C432.22 296.78 416.37 312.63 396.81 312.63C378.22 312.63 357.84 312.63 339.24 312.63C319.69 312.63 303.83 296.78 303.83 277.22C303.83 257.67 303.83 234.44 303.83 214.89C303.83 195.34 319.69 179.48 339.24 179.48C357.84 179.48 378.22 179.48 396.81 179.48Z" id="auPmeMff6"></path><path d="M353.34 226.44C353.34 232.44 347.94 237.31 341.28 237.31C334.62 237.31 329.22 232.44 329.22 226.44C329.22 220.44 334.62 215.57 341.28 215.57C347.94 215.57 353.34 220.44 353.34 226.44Z" id="a737k7QyrP"></path><path d="M403.06 226.44C403.06 232.44 397.66 237.31 391 237.31C384.34 237.31 378.94 232.44 378.94 226.44C378.94 220.44 384.34 215.57 391 215.57C397.66 215.57 403.06 220.44 403.06 226.44Z" id="b2gIp3N1Zz"></path><path d="M394.96 271.02C394.96 278.89 382.89 285.29 368.03 285.29C353.16 285.29 341.1 278.89 341.1 271.02C341.1 263.15 353.16 256.76 368.03 256.76C382.89 256.76 394.96 263.15 394.96 271.02Z" id="awj1eT6PX"></path><path d="M364.61 165.22L372.63 165.22L372.63 179.48L364.61 179.48L364.61 165.22Z" id="giPDLmm84"></path><path d="M286.92 230.18L303.83 230.18L303.83 237.31L286.92 237.31L286.92 230.18Z" id="b2h8uVZTz"></path><path d="M432.22 230.18L449.14 230.18L449.14 237.31L432.22 237.31L432.22 230.18Z" id="dwj5Y7BgA"></path><path d="M346.93 262.49L387.05 262.49L387.05 279.13L346.93 279.13L346.93 262.49Z" id="biMMU5egO"></path></defs><g><g><g><use xlink:href="#a1VuDjRhTT" opacity="1" fill="#6d024c" fill-opacity="1"></use></g><g><use xlink:href="#auPmeMff6" opacity="1" fill="#68cbca" fill-opacity="1"></use></g><g><use xlink:href="#a737k7QyrP" opacity="1" fill="#c7cc5f" fill-opacity="1"></use></g><g><use xlink:href="#b2gIp3N1Zz" opacity="1" fill="#bec93f" fill-opacity="1"></use></g><g><use xlink:href="#awj1eT6PX" opacity="1" fill="#ffffff" fill-opacity="1"></use></g><g><use xlink:href="#giPDLmm84" opacity="1" fill="#650c0c" fill-opacity="1"></use></g><g><use xlink:href="#b2h8uVZTz" opacity="1" fill="#650c0c" fill-opacity="1"></use></g><g><use xlink:href="#dwj5Y7BgA" opacity="1" fill="#650c0c" fill-opacity="1"></use></g><g><use xlink:href="#biMMU5egO" opacity="1" fill="#650c0c" fill-opacity="1"></use></g></g></g></svg>